<?xml version="1.0" standalone="no"?>
<!DOCTYPE svg PUBLIC "-//W3C//DTD SVG 1.1//EN" "http://www.w3.org/Graphics/SVG/1.1/DTD/svg11.dtd" >
<svg xmlns="http://www.w3.org/2000/svg">
<metadata>Generated by IcoMoon</metadata>
<defs>
<font id="icomoon" horiz-adv-x="1024">
<font-face units-per-em="1024" ascent="960" descent="-64" />
<missing-glyph horiz-adv-x="1024" />
<glyph unicode="&#x20;" horiz-adv-x="512" d="" />
<glyph unicode="&#xe900;" glyph-name="日程管理" horiz-adv-x="1035" d="M691.165 322.839h106.823c19.631 0 35.565 15.934 35.565 35.565v106.823c0 19.631-15.934 35.565-35.565 35.565h-106.823c-19.631 0-35.565-15.934-35.565-35.565v-106.823c0-19.631 15.934-35.565 35.565-35.565zM246.28 85.61h106.823c19.631 0 35.565 15.934 35.565 35.565v106.823c0 19.631-15.934 35.565-35.565 35.565h-106.823c-19.631 0-35.565-15.934-35.565-35.565v-106.823c0-19.631 15.934-35.565 35.565-35.565zM961.028 901.19h-877.915c-19.631 0-35.565-15.934-35.565-35.565v-877.915c0-19.631 15.934-35.565 35.565-35.565h877.915c19.631 0 35.565 15.934 35.565 35.565v877.915c0 19.631-15.934 35.565-35.565 35.565zM744.577 807.369c0 19.121 15.424 34.545 34.545 34.545h19.886c19.121 0 34.545-15.424 34.545-34.545v-69.346c0-24.603-19.886-44.488-44.488-44.488s-44.488 19.886-44.488 44.488v69.346zM210.715 807.369c0 19.121 15.424 34.545 34.545 34.545h19.886c19.121 0 34.545-15.424 34.545-34.545v-69.346c0-24.603-19.886-44.488-44.488-44.488s-44.488 19.886-44.488 44.488v69.346zM937.318 47.113c0-19.631-15.934-35.565-35.565-35.565h-759.236c-19.631 0-35.565 15.934-35.565 35.565v513.084h830.367v-513.084zM246.28 322.839h106.823c19.631 0 35.565 15.934 35.565 35.565v106.823c0 19.631-15.934 35.565-35.565 35.565h-106.823c-19.631 0-35.565-15.934-35.565-35.565v-106.823c0-19.631 15.934-35.565 35.565-35.565zM468.723 322.839h106.823c19.631 0 35.565 15.934 35.565 35.565v106.823c0 19.631-15.934 35.565-35.565 35.565h-106.823c-19.631 0-35.565-15.934-35.565-35.565v-106.823c0-19.631 15.934-35.565 35.565-35.565zM468.723 85.61h106.823c19.631 0 35.565 15.934 35.565 35.565v106.823c0 19.631-15.934 35.565-35.565 35.565h-106.823c-19.631 0-35.565-15.934-35.565-35.565v-106.823c0-19.631 15.934-35.565 35.565-35.565z" />
<glyph unicode="&#xe901;" glyph-name="系统设置" horiz-adv-x="1035" d="M381.148 325.261h-303.134c-19.376 0-34.928-15.679-34.928-34.928v-303.134c0-19.376 15.679-34.928 34.928-34.928h303.134c19.376 0 34.928 15.679 34.928 34.928v303.134c0.127 19.376-15.552 34.928-34.928 34.928zM894.231 325.261h-303.134c-19.376 0-34.928-15.679-34.928-34.928v-303.134c0-19.376 15.679-34.928 34.928-34.928h303.134c19.376 0 34.928 15.679 34.928 34.928v303.134c0.127 19.376-15.552 34.928-34.928 34.928zM381.148 838.345h-303.134c-19.376 0-34.928-15.679-34.928-34.928v-303.134c0-19.376 15.679-34.928 34.928-34.928h303.134c19.376 0 34.928 15.679 34.928 34.928v303.134c0.127 19.376-15.552 34.928-34.928 34.928zM981.806 676.58l-214.412 214.412c-13.64 13.64-35.82 13.64-49.46 0l-214.412-214.412c-13.64-13.64-13.64-35.82 0-49.46l214.412-214.412c13.64-13.64 35.82-13.64 49.46 0l214.412 214.412c13.64 13.64 13.64 35.82 0 49.46z" />
<glyph unicode="&#xe902;" glyph-name="人员管理" horiz-adv-x="1035" d="M983.973 94.788c-76.357 77.632-356.928 155.009-356.928 217.598 0 32.888 44.488 84.005 64.247 109.755 43.086 55.834 55.069 114.472 55.069 159.088 0 63.61 0 106.186 0 106.186 0 126.327-102.744 228.689-229.581 228.689-126.454 0-228.944-102.362-228.944-228.689 0 0 0-42.576 0-106.186 0-44.616 11.983-103.127 54.941-159.088 19.758-25.75 64.12-76.867 64.12-109.755 0-62.462-279.806-139.967-355.908-217.598-76.357-77.887-42.831-157.558-1.147-157.558h935.151c41.812 0 75.465 79.671-1.020 157.558z" />
<glyph unicode="&#xe903;" glyph-name="战术管理" horiz-adv-x="1035" d="M965.999 470.837c-0.127 0-0.255 0-0.382 0s-0.255 0-0.382 0h-229.199c-34.673 0-62.845-28.172-62.845-62.845s28.172-62.845 62.845-62.845h89.997c-27.025-34.545-60.678-64.629-100.705-88.085-120.208-70.238-263.999-61.188-372.607 11.090 15.424 47.038 11.855 100.195-14.532 146.595-49.078 85.918-157.558 115.364-242.456 65.777s-113.962-159.47-65.012-245.388c49.078-85.918 157.558-115.364 242.456-65.777 0.382 0.255 0.765 0.51 1.147 0.765 147.743-103.764 347.112-118.806 513.084-21.798 44.743 26.132 83.623 58.511 116.384 95.351v-69.728c0-34.291 27.789-62.080 62.080-62.080s62.080 27.789 62.080 62.080v234.68c0.255 34.418-27.662 62.207-61.952 62.207zM220.020 262.544c-33.908-19.886-77.377-8.031-97.008 26.26-19.631 34.418-8.031 78.269 26.005 98.155 33.908 19.886 77.377 8.031 97.008-26.26 19.504-34.291 7.903-78.269-26.005-98.155zM405.623 559.304c24.22-24.603 63.61-24.603 87.83 0l37.605 38.115 37.605-38.115c24.22-24.603 63.61-24.603 87.83 0s24.22 64.374 0 88.977l-37.605 38.115 37.605 38.115c24.22 24.603 24.22 64.374 0 88.977s-63.61 24.603-87.83 0l-37.605-38.115-37.605 38.115c-24.22 24.603-63.61 24.603-87.83 0s-24.22-64.374 0-88.977l37.605-38.115-37.605-38.115c-24.348-24.603-24.348-64.374 0-88.977z" />
<glyph unicode="&#xe904;" glyph-name="比赛设置" horiz-adv-x="1035" d="M723.288 857.466c-40.664 45.636-100.067 74.317-166.099 74.317-105.804 0-194.398-73.808-216.961-172.727 33.781-19.758 57.873-29.064 87.447-29.064 80.181 0.255 176.042 94.968 295.613 127.474zM631.38 235.010c62.59 193.633 148.38 405.113 148.38 474.459 0 41.302-11.345 80.054-30.976 113.197-138.055-19.886-176.297-127.984-325.059-127.984-37.732 0-66.414 9.561-88.849 22.435-0.127-2.549-0.127-5.099-0.127-7.648 0-69.601 84.005-276.746 133.465-474.459 30.084-119.953-239.396-311.419 88.977-311.419 292.553 0 34.8 189.299 74.19 311.419z" />
<glyph unicode="&#xe905;" horiz-adv-x="1035" d="M818.767 560.961c-86.427 68.326-166.354 127.602-166.354 127.602 1.785-3.697 2.677-7.648 2.677-11.6 0-31.231-58.511-56.599-130.916-56.599s-130.916 25.367-130.916 56.599c0 7.776 3.569 14.914 9.943 21.671 0 0-80.054-56.599-169.796-121.865 87.065-62.335 191.721-98.538 304.153-98.538 102.999 0 198.987 30.339 281.208 82.731zM990.602 416.023c-10.963 10.58-23.71 22.181-37.605 34.418-117.276-92.929-261.832-147.743-418.37-147.743-167.756 0-322 63.1-443.355 168.393-17.974-13.767-34.673-26.642-48.823-38.115-27.025-21.798-39.899-31.614-39.899-51.5 0-65.777 131.553-250.487 525.831-250.487 363.556 0 500.973 173.365 500.973 234.68 0 20.523-14.405 26.897-38.752 50.352zM945.221 457.197c-35.565 30.849-78.142 65.522-119.571 98.41-83.878-54.814-182.288-86.3-287.582-86.3-115.364 0-222.315 37.86-311.164 102.744-43.341-31.614-88.34-65.012-127.474-94.713 119.571-102.107 270.755-163.039 435.197-163.039 153.351-0.127 295.103 52.902 410.594 142.899z" />
<glyph unicode="&#xe906;" glyph-name="教练管理" horiz-adv-x="1035" d="M830.749-81.126h-59.785v191.594c0 8.286-6.756 15.042-15.042 15.042s-15.042-6.756-15.042-15.042v-191.594h-444.63v191.594c0 8.286-6.756 15.042-15.042 15.042s-15.042-6.756-15.042-15.042v-191.594h-63.482c-41.302 0-74.827 33.526-74.827 75.082v360.624c0 41.429 33.398 75.082 74.827 75.082h110.265l182.288-317.411c-16.317-8.413-27.407-25.495-27.407-44.998 0-28.044 22.69-50.735 50.48-50.735 7.394 0 11.983-5.481 16.827-15.042 4.971-9.561 7.521-41.302 7.521-41.302 0-8.286 2.932-18.866 11.218-18.866s15.042 6.756 15.042 15.042v101.342c0 1.147-0.127 2.295-0.382 3.314 0.255 2.040 0.382 4.079 0.382 6.119 0 18.994-10.325 35.31-25.75 44.106l183.053 318.303h104.401c41.302 0 74.827-33.526 74.827-75.082v-360.369c0-41.429-33.398-75.21-74.7-75.21zM347.622 429.663h344.053l-172.090-299.309-171.963 299.309zM516.78 486.006c-123.905 0-224.227 100.832-224.227 225.247s100.45 225.374 224.227 225.374 224.227-100.96 224.227-225.374-100.322-225.247-224.227-225.247z" />
<glyph unicode="&#xe907;" glyph-name="身体指标" horiz-adv-x="1035" d="M812.138-82.529c-59.275 0-92.164-1.020-156.283 0-75.72 0.51-156.666-1.402-285.415 0-180.121 1.912-326.206 63.1-326.206 123.905 0 41.684-21.543 237.739 27.152 371.842 33.271 91.654 137.927 297.397 163.039 344.308 24.73 46.273 21.671 63.355 95.096 123.905 16.954 14.022 52.519 47.42 81.583 55.069 49.333-18.994 93.311-50.352 124.67-85.025 12.11-13.385 25.75-19.249 24.857-39.007-1.275-26.897-13.257-8.668-13.64-41.302-0.255-28.427 13.64-10.58 13.64-41.302 0-4.844 8.413-27.534-54.304-27.534-17.336 0-37.732-13.767-54.304-27.534-29.319-24.348-71.131 27.662-108.735-68.836-63.227-162.657-38.752-198.86-40.792-275.472-1.912-72.405 13.002-152.204 27.152-151.567 34.163 65.267 92.291 96.37 190.319 96.37 55.069 0 104.911-17.082 141.496-44.616 33.143 51.882 88.212 85.918 150.674 85.918 101.342 0 183.435-89.359 183.435-199.752s-82.093-199.37-183.435-199.37z" />
<glyph unicode="&#xe908;" glyph-name="球员管理" horiz-adv-x="1035" d="M954.654 344.382c-16.827-1.402-31.741 11.218-33.016 28.172l-14.914 201.537c-2.167-1.657-3.697-2.549-5.481-5.354v-227.414l27.534-276.109c1.657-20.523-14.022-38.625-34.928-40.282s-39.262 13.767-40.919 34.291l-27.407 269.225c0 0-3.314 5.354-12.62 5.354-10.453 0-15.934-5.354-15.934-5.354l-27.279-269.99c-1.657-20.651-19.758-36.075-40.409-34.418s-36.203 19.631-34.545 40.282l23.583 239.524c17.082 10.58 31.614 29.447 30.211 46.528 0.127 0.127-8.541 200.389-18.229 298.927 20.523 3.059 47.038 4.971 81.329 4.971 130.661 0 142.516-23.455 151.439-37.987 8.923-14.405 20.013-238.632 19.886-238.759 1.147-16.827-11.473-31.741-28.299-33.143zM814.050 659.626c-38.752 0-76.102 53.539-76.102 93.439 0 48.695 31.104 82.858 76.102 82.858 45.126 0 76.102-34.163 76.102-82.858 0.127-39.772-38.242-93.439-76.102-93.439zM693.714 319.27c-20.778-1.785-39.007 14.15-40.664 35.438l-18.484 253.164c-2.549-2.040-4.589-3.187-6.756-6.756v-285.797l33.908-346.857c2.040-25.877-17.209-48.44-42.959-50.48s-48.44 17.209-50.48 43.086l-33.653 338.189c0 0-4.079 6.756-15.552 6.756-12.747 0-19.631-6.756-19.631-6.756l-33.526-339.081c-2.040-25.877-24.348-45.253-49.842-43.214s-44.488 24.73-42.449 50.607l33.271 345.582-6.629 287.964c-1.402 3.187-3.442 4.589-6.756 6.756l-18.484-246.408c-1.657-21.288-19.886-37.222-40.664-35.438s-36.33 20.396-34.545 41.684c0 0 7.394 247.172 33.398 293.828 13.13 23.965 50.607 46.91 184.073 46.91 160.745 0 175.404-29.447 186.367-47.675 10.963-18.101 24.603-299.692 24.475-299.819 1.912-21.288-13.64-40.027-34.418-41.684zM520.732 715.205c-47.803 0-93.694 67.306-93.694 117.404 0 61.188 38.242 104.019 93.694 104.019s93.694-42.831 93.694-104.019c0.127-50.097-47.038-117.404-93.694-117.404zM231.621 659.626c-38.752 0-76.102 53.539-76.102 93.439 0 48.695 31.104 82.858 76.102 82.858 45.126 0 76.102-34.163 76.102-82.858 0.127-39.772-38.242-93.439-76.102-93.439zM303.261 650.703c-17.846-100.577-23.455-285.925-23.455-285.925-1.657-20.906 20.651-47.165 42.066-55.961l24.348-243.731c1.657-20.523-14.022-38.625-34.928-40.282s-39.262 13.767-40.919 34.291l-27.407 269.225c0 0-3.314 5.354-12.62 5.354-10.453 0-15.934-5.354-15.934-5.354l-27.279-269.99c-1.657-20.651-19.758-36.075-40.409-34.418s-36.203 19.631-34.545 40.282l27.025 275.217-5.481 229.199c-1.147 2.549-2.804 3.569-5.481 5.354l-14.914-196.055c-1.402-16.954-16.189-29.574-33.016-28.172s-29.447 16.189-28.044 33.143c0 0 5.991 196.82 27.152 233.915 10.708 18.994 41.047 37.35 149.655 37.35 30.849 0.127 54.941-1.147 74.19-3.442z" />
<glyph unicode="&#xe909;" glyph-name="测试管理" horiz-adv-x="1035" d="M867.207 661.666c-0.892-0.892-1.912-1.657-2.932-2.295v-0.127c64.757-78.524 103.636-179.356 103.636-289.239 0-250.359-201.664-453.171-450.366-453.171s-450.366 202.811-450.366 453.043 201.664 453.298 450.366 453.298c116.639 0 222.825-44.616 302.879-117.786h0.127c0.51 0.765 1.020 1.53 1.785 2.167l47.42 48.313c6.501 6.629 17.209 6.629 23.71 0l21.288-21.798c6.501-6.629 6.501-17.464 0-24.22l-47.548-48.185zM906.596 376.123c0 3.697-2.932 6.629-6.501 6.629h-52.392c-3.569 0-6.501-2.932-6.501-6.629s2.932-6.629 6.501-6.629h52.392c3.569 0 6.501 2.932 6.501 6.629zM800.155 201.994l45.381-26.77c3.187-1.785 7.139-0.765 8.923 2.422s0.765 7.266-2.422 9.178l-45.381 26.77c-3.187 1.785-7.139 0.765-8.923-2.422s-0.765-7.266 2.422-9.178zM511.044-13.947c0-3.697 2.932-6.629 6.501-6.629s6.501 2.932 6.501 6.629v53.412c0 3.697-2.932 6.629-6.501 6.629s-6.501-2.932-6.501-6.629v-53.412zM128.621 376.123c0-3.697 2.932-6.629 6.501-6.629h52.392c3.569 0 6.501 2.932 6.501 6.629s-2.932 6.629-6.501 6.629h-52.264c-3.697 0-6.629-2.932-6.629-6.629zM235.062 550.253l-45.381 26.77c-3.187 1.785-7.139 0.765-8.923-2.422s-0.765-7.266 2.422-9.178l45.381-26.77c3.187-1.785 7.139-0.765 8.923 2.422s0.765 7.266-2.422 9.178zM237.484 211.044c-1.785 3.187-5.864 4.334-8.923 2.422l-45.381-26.77c-3.187-1.785-4.207-5.991-2.422-9.178s5.864-4.334 8.923-2.422l45.381 26.77c3.187 1.912 4.207 5.991 2.422 9.178zM358.202 670.971l-26.132 46.273c-1.785 3.187-5.864 4.334-8.923 2.422-3.187-1.785-4.207-5.991-2.422-9.178l26.132-46.273c1.785-3.187 5.864-4.334 8.923-2.422 3.187 1.912 4.207 5.991 2.422 9.178zM355.908 90.326c-3.187 1.785-7.139 0.765-8.923-2.422l-26.26-46.273c-1.785-3.187-0.765-7.266 2.422-9.178 3.187-1.785 7.139-0.765 8.923 2.422l26.26 46.273c1.785 3.314 0.765 7.394-2.422 9.178zM517.545 649.938c-1.402 0-32.761-255.331-32.761-273.815s14.66-33.398 32.761-33.398 32.761 14.914 32.761 33.398-31.231 273.815-32.761 273.815zM662.356 596.016l-15.042 8.923c-1.020 0.637-2.295 0.382-2.932-0.51-0.892-1.147-0.51-2.677 0.637-3.314l15.042-8.923c1.020-0.51 2.295-0.382 2.932 0.51 0.892 1.020 0.51 2.549-0.637 3.314zM712.071 719.794c-3.187 1.785-7.139 0.765-8.923-2.422l-26.132-46.273c-1.785-3.187-0.765-7.266 2.422-9.178 3.187-1.785 7.139-0.765 8.923 2.422l26.132 46.273c1.785 3.187 0.637 7.266-2.422 9.178zM514.741 780.981c-3.569 0.127-6.629-2.804-6.629-6.501l-0.765-53.157c0-3.697 2.804-6.756 6.501-6.884 3.569-0.127 6.629 2.804 6.629 6.501l0.765 53.157c0.127 3.697-2.804 6.756-6.501 6.884zM714.493 41.631l-26.132 46.273c-1.785 3.187-5.864 4.334-8.923 2.422-3.187-1.785-4.207-5.991-2.422-9.178l26.132-46.273c1.785-3.187 5.864-4.334 8.923-2.422 3.187 1.912 4.207 5.991 2.422 9.178zM854.459 574.473c-1.785 3.187-5.864 4.334-8.923 2.422l-45.381-26.77c-3.187-1.785-4.207-5.991-2.422-9.178s5.864-4.334 8.923-2.422l45.381 26.77c3.059 1.912 4.207 5.991 2.422 9.178zM593.775 888.315h-42.959c0 0-0.127 0-0.127-0.127v-65.139c0 0 0-0.127-0.127-0.127h-66.032c0 0-0.127 0-0.127 0.127v65.139c0 0 0 0.127-0.127 0.127h-41.684c-1.785 0-3.187 1.402-3.187 3.187v41.812c0 1.785 1.402 3.187 3.187 3.187h151.184c1.785 0 3.187-1.402 3.187-3.187v-41.812c0.127-1.785-1.402-3.187-3.187-3.187z" />
<glyph unicode="&#xe90a;" glyph-name="账号设置" horiz-adv-x="1035" d="M428.186 900.68c3.059 16.699 22.308 35.82 42.194 35.82 20.013 0 69.473-0.127 90.379 0s42.321-14.66 46.018-35.82c3.569-21.161 14.022-82.986 17.082-100.45s11.728-24.093 11.728-24.093 27.662-11.983 40.664-17.082c13.002-5.226 25.112 3.187 25.112 3.187s73.043 52.009 87.192 61.952c14.022 9.943 40.919 10.070 51.882-0.51 10.963-10.708 52.519-51.117 68.964-67.816s16.189-44.361 5.864-58.766c-10.325-14.405-51.117-71.386-58.766-82.348-7.648-10.835-8.923-22.181-5.354-30.976s12.875-31.741 14.405-35.82c1.657-4.079 10.325-12.492 18.739-13.895s81.838-13.512 104.529-17.209 38.625-23.965 38.625-50.48c0-21.161 0.127-55.834-0.127-80.181-0.127-24.348-12.492-44.106-37.987-48.568s-91.399-15.679-101.724-17.719c-10.453-2.040-18.101-7.139-22.053-15.679-3.952-8.413-11.090-23.328-14.277-30.594s-4.207-21.033 2.167-29.956c6.374-8.796 50.99-70.876 60.423-85.28s16.062-41.429-5.354-62.59-41.429-40.919-59.913-58.766-43.341-19.376-63.1-5.354-66.796 47.293-77.504 55.069c-10.708 7.776-18.484 13.512-33.653 6.884-15.169-6.501-23.2-9.943-32.633-14.405-9.306-4.589-14.405-9.306-16.572-22.435s-12.875-78.907-17.336-101.724c-4.334-22.818-20.778-37.987-55.196-38.115s-48.44-0.382-74.827 0-44.871 14.532-49.333 40.919c-4.589 26.387-13.767 80.564-16.954 95.478s-6.884 23.073-20.013 28.554c-13.002 5.481-19.504 8.158-26.77 11.090-7.266 2.804-20.778 5.736-33.908-3.569-13.002-9.306-57.746-41.174-79.799-56.599-22.053-15.552-48.44-11.983-64.884 4.334-16.444 16.189-45.636 44.871-59.53 59.53s-20.268 40.664-6.119 60.55c14.277 19.886 42.066 58.766 55.961 78.397s11.218 23.328 6.119 38.497c-5.226 15.169-6.884 16.572-11.345 27.407-4.589 10.835-11.345 16.572-26.005 18.866-14.66 2.422-60.295 9.561-90.889 15.297s-46.656 21.416-46.656 50.99v78.524c0 24.73 14.15 46.656 37.222 50.862 23.073 4.079 72.915 12.238 94.076 16.189 22.053 4.079 28.044 7.139 33.908 20.651s10.835 24.73 13.895 33.653 0.765 17.082-10.198 32.633-34.163 48.695-50.225 70.748-18.866 49.842-0.765 67.689c18.229 17.846 48.44 47.42 61.952 61.315s37.605 19.886 59.913 4.334 58.511-40.919 76.612-53.284c18.229-12.238 24.348-14.277 36.84-9.051 12.62 5.226 36.33 14.914 36.33 14.914s10.835 3.824 13.895 22.435c3.059 18.356 14.15 85.663 17.082 102.362v0zM670.132 427.113c0-84.388-68.326-152.714-152.714-152.714s-152.714 68.326-152.714 152.714 68.326 152.587 152.714 152.587c84.26 0 152.714-68.326 152.714-152.587v0zM517.418 671.864c-135.25 0-244.878-109.628-244.878-244.878s109.628-244.878 244.878-244.878 244.878 109.628 244.878 244.878-109.628 244.878-244.878 244.878v0z" />
<glyph unicode="&#xe90b;" glyph-name="战术板" horiz-adv-x="1035" d="M880.719 482.309v-111.285c-23.2 0-41.939 24.857-41.939 55.579s18.866 55.706 41.939 55.706zM1020.431 120.665h-488.863v132.701c89.869 7.139 160.617 81.966 160.617 173.237s-70.748 166.099-160.617 173.237v132.701h488.991c3.824 0 7.011-3.059 7.011-7.011v-125.18h-132.828c-7.776 0-14.022-6.246-14.022-13.895v-76.485c-34.673 0-62.845-37.35-62.845-83.496 0-46.018 28.172-83.496 62.845-83.496v-76.485c0-7.648 6.246-13.895 14.022-13.895h132.701v-125.18c0-3.569-3.187-6.756-7.011-6.756zM908.636 572.689h118.806v-62.59h-48.95c-7.776 0-14.022-6.246-14.022-13.895v-139.074c0-7.648 6.246-13.895 14.022-13.895h48.95v-62.59h-118.806v292.043zM992.386 482.309h35.055v-111.285h-34.928v111.285zM154.371 371.025v111.285c23.2 0 41.939-24.857 41.939-55.579-0.127-30.849-18.866-55.706-41.939-55.706zM7.648 127.676v125.18h132.701c7.776 0 14.022 6.246 14.022 13.895v76.485c34.673 0 62.845 37.35 62.845 83.496 0 46.018-28.172 83.496-62.845 83.496v76.485c0 7.648-6.246 13.895-14.022 13.895h-132.701v125.18c0 3.824 3.187 7.011 7.011 7.011h488.863v-132.701c-89.869-7.139-160.617-81.966-160.617-173.237s70.748-166.354 160.617-173.492v-132.701h-488.863c-3.824 0-7.011 3.187-7.011 7.011zM370.822 426.603c0 75.975 58.256 138.309 132.701 145.321v-290.641c-74.445 7.011-132.701 69.473-132.701 145.321zM126.454 280.645h-118.806v62.59h48.95c7.776 0 14.022 6.246 14.022 13.895v139.074c0 7.648-6.246 13.895-14.022 13.895h-48.95v62.59h118.806v-292.043zM42.576 371.025h-34.928v111.285h34.928v-111.285zM664.268 426.603c0-75.975-58.256-138.309-132.701-145.321v290.641c74.445-7.011 132.701-69.346 132.701-145.321z" />
<glyph unicode="&#xe90c;" glyph-name="比赛管理" horiz-adv-x="1035" d="M1009.978 286.764c12.492 44.361 19.249 91.399 19.249 139.839 0 282.61-229.071 511.681-511.681 511.681s-511.681-229.071-511.681-511.681c0-255.076 218.491-511.554 511.681-511.554 232.003 0 428.058 154.371 490.776 366.106zM710.286 787.1c33.143-2.167 63.737-3.059 71.131-3.314 15.042-17.974 43.341-52.774 63.865-85.153 26.515-41.812 46.783-83.241 57.108-105.294-6.501-8.541-21.543-29.192-34.036-50.862-16.699-28.937-30.211-59.658-33.016-66.159-21.543 4.334-59.913 11.473-98.792 17.082-37.732 5.354-76.102 9.306-100.195 11.6-6.629 13.385-25.112 49.715-45.126 84.133-19.631 33.653-40.792 65.267-48.44 76.357 7.903 19.249 18.739 41.939 33.398 65.139 12.62 20.013 29.574 43.469 44.361 63.482 15.807-1.402 54.177-4.717 89.742-7.011zM539.853 269.173c-13.257 34.036-24.093 63.227-31.231 82.858 10.070 10.070 40.792 40.792 69.091 72.66 27.662 31.231 52.519 63.61 59.403 72.533 24.73-2.422 61.697-6.246 97.9-11.473 41.047-5.864 81.074-13.512 101.087-17.591 2.549-12.62 8.413-41.174 16.189-71.258 11.345-43.724 25.877-90.889 28.299-98.792-13.002-20.778-35.438-55.069-58.001-82.476-33.908-41.302-69.728-75.592-86.173-90.889-11.6 4.971-44.106 18.229-77.887 26.642-35.438 8.796-72.023 13.002-86.555 14.405-5.991 23.2-18.484 68.454-32.123 103.382zM564.073 165.409c-6.501-4.462-33.398-22.945-58.128-45.381-26.26-23.838-50.735-51.5-57.873-59.913-26.642 5.099-71.513 14.787-111.922 28.554-44.106 15.042-83.496 34.418-105.039 45.763-2.549 16.444-8.413 53.157-16.317 88.722-7.903 35.438-18.229 69.728-21.798 81.583 21.161 22.435 49.205 50.225 77.377 72.915 18.611 14.914 37.095 28.682 52.647 39.772 10.325-4.589 41.812-18.356 75.72-31.231 42.449-16.062 88.849-31.741 102.617-36.33 7.394-20.396 18.484-50.225 31.869-84.388 13.002-33.653 24.985-77.377 30.849-100.067zM261.067 776.137c14.405 27.534 27.025 55.961 34.163 72.788 61.188 32.251 130.024 51.627 203.194 54.431 11.218-12.747 29.192-32.633 48.185-50.99 28.554-27.662 59.403-52.137 65.522-56.853-14.405-19.631-30.339-42.066-42.576-61.315-14.914-23.455-25.622-46.273-33.271-65.394-12.365-2.295-54.814-10.58-97.645-20.778-43.214-10.325-86.682-22.563-99.557-26.26-13.002 11.6-27.662 24.22-42.576 35.948-27.025 21.288-54.814 40.154-74.445 53.029 6.246 9.306 24.348 37.222 39.007 65.394zM49.715 331.762c-6.246 30.721-9.433 62.335-9.433 94.841 0 31.869 3.187 63.1 9.178 93.184 7.776-22.69 17.209-52.392 23.328-79.416 6.501-29.319 10.963-57.746 14.022-81.074-4.717-2.677-14.66-8.668-24.348-16.572-4.462-3.442-8.796-7.266-12.747-10.963zM94.586 358.787c-3.187 24.093-7.776 53.539-14.532 83.751-7.266 32.378-19.504 68.454-27.789 91.017 3.314 14.405 7.266 28.427 11.728 42.321 16.444 11.473 45.126 31.869 72.66 54.814 36.33 30.211 70.876 64.502 80.564 74.317 20.396-13.385 48.823-33.016 76.23-54.559 14.405-11.345 28.554-23.583 41.174-34.8-1.785-13.257-6.374-49.97-9.433-88.212-3.314-42.321-5.099-86.427-5.736-102.234-15.552-11.090-34.036-24.73-52.647-39.644-28.682-23.073-57.363-51.5-78.907-74.19-7.903 4.717-27.917 16.572-48.058 26.77-18.356 9.178-36.713 16.954-45.253 20.651zM159.215 111.487c6.756 0.255 14.15 0.765 21.416 1.785 23.2 3.059 46.528 10.708 50.862 12.11 23.455-11.983 62.207-30.339 104.146-44.616 42.576-14.532 89.614-23.965 113.962-28.299 6.374-8.541 19.886-26.132 34.673-42.704 11.6-13.002 24.475-25.495 31.741-32.251-11.345-10.58-21.926-19.504-31.104-26.642-129.514 8.541-245.005 68.964-325.697 160.617zM517.545-50.533c-7.011 0-14.022 0.127-21.033 0.51 7.776 6.374 16.317 13.767 25.112 22.181 0.127-0.127 0.255-0.255 0.255-0.255s50.862 9.051 100.45 21.926c41.302 10.708 81.838 24.22 91.781 27.662 10.835-5.354 20.778-10.453 29.574-14.914-67.179-36.458-144.301-57.108-226.139-57.108zM751.97 11.037c-9.688 4.971-21.033 10.708-33.271 16.699 3.059 7.903 8.796 23.2 12.747 39.262 4.844 19.886 7.776 41.047 8.923 50.607 16.699 15.552 53.922 51.5 88.595 93.566 23.965 29.064 47.548 66.287 59.403 85.535 10.198-0.255 29.829-0.637 49.078 0.382 15.552 0.765 30.849 2.549 40.664 3.824-33.908-124.16-116.511-228.051-226.139-289.876zM961.665 553.695c-19.121 18.611-41.174 34.036-50.99 40.537-10.453 22.435-31.869 65.904-59.148 108.863-21.543 34.036-51.882 70.621-65.522 86.555l11.6 23.328c92.801-67.434 160.363-167.374 185.857-283.12-6.374 7.776-13.895 16.062-21.798 23.838z" />
<glyph unicode="&#xe90d;" glyph-name="计划管理" horiz-adv-x="1035" d="M968.166 581.484c-20.396-10.963-18.994-11.473-13.767-24.093s82.731-184.455-82.731-340.738-361.262-41.047-372.097-30.976-19.504 15.169-30.976 3.442-235.317-171.325-244.623-182.416c-9.178-11.090-16.062-7.266-24.093 3.442-8.031 10.58-170.051 165.079-185.985 182.416-10.453 11.345-2.422 12.62 10.325 27.534 12.747 14.787 359.095 343.67 409.957 413.016 50.352 68.581 98.792 89.742 175.659 110.138 87.83 23.328 179.484-22.435 189.427-27.534 10.070-5.099 16.189-17.336 24.093 10.325s47.165 51.117 68.964 55.069c21.798 3.952 65.904 11.218 99.94-27.534 79.544-90.379-3.697-161.127-24.093-172.090zM580.007 448.146l-107.206 105.931c-2.677 2.677-7.011 2.677-9.688 0l-38.752-39.135c-2.677-2.677-2.677-7.011 0-9.688l107.206-105.931c2.677-2.677 7.011-2.677 9.688 0l38.752 39.135c2.677 2.549 2.677 7.011 0 9.688zM916.539 715.715c-20.906 0-37.86-16.954-37.86-37.86s16.954-37.86 37.86-37.86 37.86 16.954 37.86 37.86-16.954 37.86-37.86 37.86zM372.225 674.413h-27.534c-1.912 0-3.442 1.53-3.442 3.442l-34.418 172.090c0 1.912 1.53 3.442 3.442 3.442h96.37c1.912 0 3.442-1.53 3.442-3.442l-34.418-172.090c0-1.912-1.657-3.442-3.442-3.442zM262.724 561.726l-173.492-27.279c-1.912 0.127-3.314 1.657-3.314 3.569l3.952 96.243c0.127 1.912 1.657 3.314 3.569 3.314l170.688-41.557c1.912-0.127 3.314-1.657 3.314-3.569l-1.147-27.534c0-1.785-1.657-3.314-3.569-3.187zM244.495 679.13c-1.275-1.402-3.569-1.402-4.844-0.127l-147.488 95.351c-1.402 1.275-1.402 3.442-0.127 4.844l67.306 69.091c1.275 1.402 3.569 1.402 4.844 0.127l99.557-144.683c1.402-1.275 1.402-3.442 0.127-4.844l-19.376-19.758z" />
<glyph unicode="&#xe90e;" glyph-name="定位球设定" horiz-adv-x="1035" d="M131.426 102.054c-41.429-9.561-67.179-50.862-57.618-92.164s50.862-67.051 92.164-57.491c41.429 9.561 67.179 50.862 57.618 92.164-9.433 41.429-50.735 67.051-92.164 57.491zM955.546 840.894c-30.976 31.614-31.359 28.427-78.524-5.099-47.165-33.653-71.64-77.122-144.428-46.528s-67.816 27.152-87.192 22.69c-19.376-4.462-38.625-57.618-83.496-69.218-44.743-11.473-94.458 18.356-108.098 35.693s-50.48 11.090-79.416-12.875c-28.937-23.965-86.427-54.814-114.854-76.485s-100.322-95.606-111.795-106.951c-11.345-11.345-41.812-57.236-14.022-74.445 27.662-17.336 48.823-11.218 71.386 26.387s119.316 108.735 154.626 119.061c35.31 10.325 37.222 20.523 53.284 30.721 4.589-43.214-5.609-87.702-12.62-108.735s-32.378-98.028-47.038-108.99c-14.66-10.963-71.003-52.137-89.232-66.032-18.356-14.022-21.671-17.974-48.695-22.053 42.704 39.007 127.984 108.481 139.584 128.494s2.422 36.203-10.325 44.998c-12.875 8.923-33.143 26.77-65.012-31.359s-58.766-99.94-71.003-112.56c-12.238-12.492-24.093-49.842 35.693-70.493 59.658-20.651 68.964-28.172 103.509 4.589 34.418 32.888 46.783 35.693 67.689 42.704 6.374-41.684 19.504-79.671 21.798-103.891 2.422-24.22 8.286-77.887 6.501-89.104s-15.297-63.992-24.22-90.889-11.473-49.333-25.75-80.691-44.871-71.895 4.717-94.968c49.46-23.073 61.697 37.222 74.7 77.759 12.365 38.752 51.372 151.184 59.403 172.473s24.475 99.557 14.914 136.142 29.064 172.982 45.891 212.499c16.699 39.517 54.049 130.151 61.697 157.813s-0.255 32.378 39.39 25.367c48.695-8.668 78.524-22.69 102.872-16.062 24.348 6.756 81.074 50.097 99.175 65.139 17.974 14.914 89.869 53.284 58.893 84.898zM554.768 774.098c43.469 10.070 70.493 53.539 60.423 97.008s-53.284 70.493-96.753 60.423-70.493-53.539-60.423-97.008c9.943-43.469 53.284-70.493 96.753-60.423z" />
<glyph unicode="&#xe90f;" glyph-name="结果录入" horiz-adv-x="1035" d="M796.969 737.768h26.642c15.807 0 28.554 12.492 28.554 27.789v113.579c0 11.855-9.943 21.543-22.181 21.543h-39.39c-12.238 0-22.181-9.688-22.181-21.543v-113.579c0.127-15.424 12.875-27.789 28.554-27.789zM226.649 737.768h26.642c15.807 0 28.554 12.492 28.554 27.789v113.579c0 11.855-9.943 21.543-22.181 21.543h-39.39c-12.238 0-22.181-9.688-22.181-21.543v-113.579c0-15.424 12.875-27.789 28.554-27.789zM636.606 148.71c9.433-14.66 21.161-26.387 35.438-34.928 14.277-8.668 31.104-12.875 50.48-12.875s36.33 4.334 50.735 13.13c14.405 8.796 26.26 20.523 35.693 35.438 9.433 14.787 16.444 32.123 21.161 51.755s7.011 40.409 7.011 62.207c0 21.798-2.040 42.576-6.119 62.207s-10.58 36.968-19.758 52.009c-9.051 15.042-20.906 26.897-35.438 35.82s-32.123 13.385-52.774 13.385c-20.396 0-37.732-4.462-52.264-13.385s-26.387-20.906-35.438-36.075c-9.051-15.169-15.679-32.633-19.886-52.647s-6.374-40.919-6.374-62.59c0-21.798 2.295-42.449 6.756-61.952 4.462-19.758 11.345-36.84 20.778-51.5zM671.024 302.571c2.040 13.512 5.226 25.622 9.561 36.585 4.334 10.835 10.070 19.758 16.954 26.515s15.297 10.198 25.367 10.198c10.070 0 18.484-3.442 25.367-10.198s12.492-15.679 16.954-26.515c4.334-10.835 7.521-23.073 9.433-36.585s2.804-26.77 2.804-39.772c0-12.747-0.892-25.24-2.804-37.732-1.912-12.365-4.971-23.583-9.178-33.653-4.207-9.943-9.816-18.101-16.954-24.348-7.011-6.246-15.552-9.306-25.622-9.306-10.325 0-18.866 3.059-25.75 9.051s-12.492 13.895-16.954 23.583c-4.334 9.688-7.521 20.778-9.433 33.398-1.912 12.492-2.804 25.24-2.804 37.86 0.127 13.895 1.020 27.534 3.059 40.919zM996.593 841.404h-129.259v-90.634c0-15.297-12.747-27.789-28.554-27.789h-58.256c-15.807 0-28.554 12.492-28.554 27.789v90.634h-453.808v-90.634c0-15.297-12.747-27.789-28.554-27.789h-58.256c-15.807 0-28.554 12.492-28.554 27.789v90.634h-144.301c-12.62 0-22.818-9.943-22.818-22.181v-851.782c0-12.238 10.198-22.181 22.818-22.181h958.223c12.62 0 22.818 9.943 22.818 22.181v851.782c-0.127 12.238-10.325 22.181-22.945 22.181zM958.606 26.717c0-12.238-10.198-22.181-22.818-22.181h-836.485c-12.62 0-22.818 17.336-22.818 29.574v488.863h882.121v-496.257zM228.816 363.631h22.945v-245.133c0-11.855 9.816-17.719 29.574-17.719s29.574 5.864 29.574 17.719v278.786c0 15.679-10.835 23.583-32.378 23.583h-46.91c-6.246 0-10.835-2.167-13.895-6.374-2.932-4.207-4.462-11.855-4.462-22.69 0-11.473 1.147-19.121 3.314-22.69 2.167-3.697 6.246-5.481 12.238-5.481zM457.887 142.081c3.952-3.824 8.541-6.756 13.895-8.796 5.354-2.167 10.963-3.187 16.954-3.187s11.6 1.020 16.954 3.187c5.354 2.167 9.943 5.099 13.895 8.796 3.952 3.824 7.011 8.158 9.433 13.13 2.295 4.971 3.569 10.453 3.569 16.572 0 5.736-1.147 11.218-3.569 16.317-2.295 5.099-5.481 9.561-9.433 13.385s-8.541 6.756-13.895 9.051c-5.354 2.295-10.963 3.442-16.954 3.442s-11.6-1.147-16.954-3.442c-5.354-2.295-9.943-5.354-13.895-9.051-3.952-3.824-7.011-8.286-9.433-13.385-2.295-5.099-3.569-10.58-3.569-16.317 0-6.119 1.147-11.6 3.569-16.572s5.609-9.306 9.433-13.13zM457.887 311.877c3.952-3.824 8.541-6.756 13.895-8.796 5.354-2.167 10.963-3.187 16.954-3.187s11.6 1.020 16.954 3.187c5.354 2.167 9.943 5.099 13.895 8.796 3.952 3.824 7.011 8.158 9.433 13.13 2.295 4.971 3.569 10.453 3.569 16.572 0 5.736-1.147 11.218-3.569 16.317-2.295 5.099-5.481 9.561-9.433 13.385s-8.541 6.756-13.895 9.051c-5.354 2.295-10.963 3.442-16.954 3.442s-11.6-1.147-16.954-3.442c-5.354-2.295-9.943-5.354-13.895-9.051-3.952-3.824-7.011-8.286-9.433-13.385-2.295-5.099-3.569-10.58-3.569-16.317 0-6.119 1.147-11.6 3.569-16.572s5.609-9.433 9.433-13.13z" />
<glyph unicode="&#xe910;" glyph-name="首发设定" horiz-adv-x="1035" d="M965.872 476.828c-12.747-3.442-138.182-25.112-156.411-30.466s-25.112 16.572-25.112 16.572-0.892 9.433-2.422 18.866l196.055 34.163c1.020-5.354 1.657-11.983 1.912-14.15 2.804-22.053-1.275-21.671-14.022-24.985zM891.427 748.348c-33.781 42.321-69.473 66.287-149.017 91.399-46.528 14.787-65.777 41.684-82.603 58.128-16.062 15.807-34.8-27.279-50.225-41.557-47.293-43.724-76.867-55.451-89.232-55.451-11.6 0-34.291 9.561-80.946 49.842-15.934 13.767-45.636 59.658-61.443 47.165-18.356-14.787-38.752-40.664-85.408-55.451-79.544-25.112-117.914-54.559-151.694-97.008-34.036-42.704-61.443-194.143-64.12-216.196 0-0.127 0-0.255 0-0.382l-15.807 2.804c13.002 61.57 45.126 193.123 72.533 227.541 33.781 42.321 79.671 71.768 159.215 97.008 46.528 14.787 78.269 52.774 94.968 69.218 16.062 15.807 16.444 12.875 36.33 2.804 19.758-10.070 66.796-24.348 93.311-22.181 0 0 0 0 0.127 0h0.255c0 0 0 0 0.127 0 26.515-2.167 73.553 12.11 93.311 22.181 19.886 10.070 20.268 13.002 36.33-2.804 16.827-16.444 48.44-54.559 94.968-69.218 79.544-25.112 125.435-54.559 159.215-97.008 27.789-34.8 60.423-169.541 73.043-229.963l-13.64-2.422c-4.844 23.2-35.693 178.974-69.601 221.55zM611.111 917.379c-19.758-10.070-66.796-24.348-93.311-22.181 0 0 0 0-0.127 0h-0.255c0 0 0 0-0.127 0-26.515-2.167-73.553 12.11-93.311 22.181-19.886 10.070-21.543-4.717-12.365-19.376 10.070-16.444 81.201-80.436 108.863-80.309 26.897 0.127 68.709 31.869 103.254 80.309 12.875 18.229 7.266 29.447-12.62 19.376zM250.742 462.933c0 0-6.884-21.926-25.112-16.572-18.356 5.354-143.663 27.025-156.411 30.466s-16.699 2.932-14.022 24.985c0.255 2.549 1.147 10.070 2.422 16.572l195.928-34.291c-1.785-10.708-2.804-21.161-2.804-21.161zM150.165 737.258c33.781 42.321 62.972 66.287 142.516 91.399 46.528 14.66 65.904 35.948 82.603 52.647 15.934 15.934 39.007-24.093 55.834-38.752 16.062-14.022 59.785-57.618 86.3-55.451 0 0 0 0 0.127 0h0.255c0 0 0 0 0.127 0 26.515-2.167 85.025 44.361 100.577 60.040 13.257 13.385 28.809 47.42 44.361 31.359 16.317-16.954 33.271-37.86 79.799-52.647 79.544-25.112 106.823-43.469 140.604-85.918 33.781-42.321 60.805-191.211 64.12-215.431l-168.011-29.192c-4.334 22.435-9.943 47.93-14.66 47.93-11.728 0-14.022-121.865-14.022-121.865s11.218-429.843 11.218-446.16-0.765-26.387-16.699-33.271c-15.934-6.884-85.28-24.857-227.541-24.985v0h-0.255c-142.134 0-211.607 17.974-227.541 24.985-15.934 6.884-16.699 16.954-16.699 33.271s11.218 446.16 11.218 446.16-2.167 121.865-14.022 121.865c-4.589 0-9.943-23.965-13.895-45.636l-168.138 29.447c4.334 30.211 29.064 169.158 61.825 210.205zM293.828 493.017c2.295-43.724 3.314-88.212 3.314-88.212 0-3.059 2.549-5.481 5.609-5.481h432.392c3.059 0 5.609 2.422 5.609 5.481 0 0-1.020 47.293 1.275 92.546 2.549 49.97 21.033 76.485 21.033 76.485 0 3.059-2.549 5.481-5.609 5.481h-474.331c-3.059 0-5.609-2.422-5.609-5.481 0.127-0.127 14.277-39.899 16.317-80.819z" />
<glyph unicode="&#xe911;" glyph-name="文档管理" horiz-adv-x="1035" d="M901.115 139.531h-77.249v702.255c0 6.629-5.354 11.855-11.855 11.855h-463.879v71.386c0 6.629 5.354 11.855 11.855 11.855h541.128c6.629 0 11.855-5.354 11.855-11.855v-773.641c0.127-6.501-5.226-11.855-11.855-11.855zM800.028 815.017v-773.641c0-6.629-5.354-11.855-11.855-11.855h-74.317v696.136c0 6.629-5.354 11.855-11.855 11.855h-466.938v77.377c0 6.629 5.354 11.855 11.855 11.855h541.128c6.629 0.127 11.983-5.226 11.983-11.728zM687.086 701.947v-773.641c0-6.629-5.354-11.855-11.855-11.855h-541.255c-6.629 0-11.855 5.354-11.855 11.855v773.641c0 6.629 5.354 11.855 11.855 11.855h541.128c6.629 0 11.983-5.354 11.983-11.855zM597.854 621.511c0 3.314-2.677 5.991-5.991 5.991h-380.51c-3.314 0-5.991-2.677-5.991-5.991v-17.846c0-3.314 2.677-5.991 5.991-5.991h380.638c3.314 0 5.991 2.677 5.991 5.991v17.846h-0.127zM597.854 508.442c0 3.314-2.677 5.991-5.991 5.991h-380.51c-3.314 0-5.991-2.677-5.991-5.991v-17.846c0-3.314 2.677-5.991 5.991-5.991h380.638c3.314 0 5.991 2.677 5.991 5.991v17.846h-0.127zM597.854 395.5c0 3.314-2.677 5.991-5.991 5.991h-380.51c-3.314 0-5.991-2.677-5.991-5.991v-17.846c0-3.314 2.677-5.991 5.991-5.991h380.638c3.314 0 5.991 2.677 5.991 5.991v17.846h-0.127zM597.854 282.43c0 3.314-2.677 5.991-5.991 5.991h-380.51c-3.314 0-5.991-2.677-5.991-5.991v-17.846c0-3.314 2.677-5.991 5.991-5.991h380.638c3.314 0 5.991 2.677 5.991 5.991v17.846h-0.127zM597.854 169.36c0 3.314-2.677 5.991-5.991 5.991h-380.51c-3.314 0-5.991-2.677-5.991-5.991v-17.846c0-3.314 2.677-5.991 5.991-5.991h380.638c3.314 0 5.991 2.677 5.991 5.991v17.846h-0.127zM597.854 50.3c0 3.314-2.677 5.991-5.991 5.991h-380.51c-3.314 0-5.991-2.677-5.991-5.991v-17.846c0-3.314 2.677-5.991 5.991-5.991h380.638c3.314 0 5.991 2.677 5.991 5.991v17.846h-0.127z" />
<glyph unicode="&#xe912;" glyph-name="单项训练管理" horiz-adv-x="1035" d="M1023.745 316.083c0-79.799-47.42-64.502-47.42-64.502s-13.767-0.382-63.992-0.765v-20.778c0-13.257-10.58-23.838-23.71-23.838h-2.422c-13.13 0-23.71 10.708-23.71 23.838v20.396c-70.366-0.382-181.651-0.892-355.398-1.147v-19.249c0-13.257-10.58-23.838-23.71-23.838h-2.422c-13.13 0-23.71 10.708-23.71 23.838v19.249c-33.398 0-68.836 0-106.568-0.127v-19.121c0-13.257-10.58-23.838-23.71-23.838h-2.422c-13.13 0-23.71 10.708-23.71 23.838v19.121c-16.189 0-32.761 0-49.715 0-14.277 0-32.378 0.127-49.715 0.51v-19.631c0-13.257-10.58-23.838-23.71-23.838h-2.422c-13.13 0-23.71 10.708-23.71 23.838v22.181c-231.621 21.926-146.85 189.044 26.515 244.878 24.73 8.031 49.842 17.974 73.298 28.044l67.051-91.909c7.776-10.58 22.563-12.875 33.143-5.099l1.912 1.402c10.58 7.776 12.747 22.818 5.099 33.398l-60.423 82.858c13.64 6.246 26.005 11.855 36.33 16.317 1.912 0.765 3.697 1.53 5.609 2.422l69.473-95.096c7.776-10.58 22.563-12.875 33.143-5.099l1.912 1.402c10.58 7.776 12.747 22.818 5.099 33.398l-62.207 84.77c14.914 5.864 29.064 11.345 42.704 16.699l67.561-92.674c7.776-10.58 22.563-12.875 33.143-5.099l1.912 1.402c10.58 7.776 12.747 22.818 5.099 33.398l-60.423 82.731c13.895 6.246 27.534 13.002 41.429 20.651 28.682 15.807 33.653-1.53 54.431-26.26 20.141-23.965 133.211-176.297 206.126-150.547 57.491 20.396 26.005 164.314 146.85 164.824 116.384 0.637 97.39-233.023 97.39-312.949z" />
<glyph unicode="&#xe913;" horiz-adv-x="1035" d="M522.517 732.541c-76.102 0-137.672-25.367-137.672-56.471 0-31.231 61.697-56.471 137.672-56.471s137.672 25.367 137.672 56.471c0.255 31.104-61.57 56.471-137.672 56.471zM522.517 624.188c-69.983 0-126.709 23.2-126.709 51.755s56.726 51.755 126.709 51.755 126.709-23.2 126.709-51.755-56.599-51.755-126.709-51.755z" />
<glyph unicode="&#xe914;" glyph-name="首页" horiz-adv-x="1035" d="M597.344-2.347v255.076h-160.745v-255.713c-4.971-0.127-9.051-0.51-13.002-0.51h-228.051c-26.005 0-43.724 16.699-43.724 44.361-0.51 104.911-0.382 209.95 0.127 314.861 0 5.609 4.334 12.62 8.541 16.317 68.836 60.55 137.8 120.591 206.891 180.886 45.891 40.027 91.781 80.309 137.8 120.336 3.569 3.187 7.266 6.119 11.728 9.816 27.279-23.965 54.686-47.675 81.966-71.386 89.742-78.397 179.611-157.048 269.735-235.062 9.688-8.286 13.767-16.827 13.767-30.339-0.51-99.685-0.382-199.37-0.127-298.927 0-18.101-4.334-33.908-19.376-43.979-5.354-3.697-12.492-6.884-18.739-6.884-80.691-0.382-161.127-0.127-241.818-0.127-1.657 0-2.677 0.637-4.971 1.275v0 0 0zM718.444 703.987v119.698c0 24.857 5.609 30.721 28.937 30.721h108.99c18.739 0 25.24-7.011 25.24-28.044 0-82.986 0.382-166.226-0.127-249.467 0-12.747 3.314-21.161 12.875-29.319 39.772-33.908 78.779-68.709 118.041-103.382 19.376-17.082 19.758-25.24 3.569-45.381-9.816-12.238-19.376-24.857-29.319-37.095-12.11-15.169-22.181-16.062-36.84-3.187-139.457 123.268-278.786 246.535-418.115 369.548-4.844 4.207-9.816 8.286-15.424 13.385-31.359-27.662-62.462-55.069-93.566-82.476-112.815-99.94-226.012-199.752-339.081-299.692-15.297-13.512-24.857-12.747-37.732 3.187l-31.741 40.027c-12.238 15.552-11.728 25.75 2.932 38.88 62.972 55.961 126.454 111.54 189.682 167.374 84.26 74.317 168.648 148.635 252.909 223.207 38.242 33.781 75.465 33.781 113.834-0.127 45.381-40.282 90.762-80.309 136.142-120.336 2.040-2.040 4.334-3.824 8.796-7.521v0 0 0z" />
</font>
</defs>
</svg>
